<svg xmlns="http://www.w3.org/2000/svg" viewBox="0 0 240 240" role="img" aria-label="女性ナビゲーター">
  <defs>
    <linearGradient id="bg" x1="0" y1="0" x2="1" y2="1">
      <stop offset="0" stop-color="#fff8fb"/>
      <stop offset=".58" stop-color="#ffe7f0"/>
      <stop offset="1" stop-color="#dff4ff"/>
    </linearGradient>
    <linearGradient id="hair" x1=".18" y1=".1" x2=".82" y2=".9">
      <stop offset="0" stop-color="#2f2525"/>
      <stop offset=".62" stop-color="#4d3430"/>
      <stop offset="1" stop-color="#6b4741"/>
    </linearGradient>
    <linearGradient id="skin" x1=".2" y1=".1" x2=".85" y2="1">
      <stop offset="0" stop-color="#ffe4d2"/>
      <stop offset=".55" stop-color="#ffd1bd"/>
      <stop offset="1" stop-color="#f7bca6"/>
    </linearGradient>
    <linearGradient id="blouse" x1=".2" y1=".05" x2=".8" y2="1">
      <stop offset="0" stop-color="#f5fbff"/>
      <stop offset=".62" stop-color="#bfe5ff"/>
      <stop offset="1" stop-color="#86c7f0"/>
    </linearGradient>
    <filter id="shadow" x="-20%" y="-20%" width="140%" height="150%">
      <feDropShadow dx="0" dy="7" stdDeviation="7" flood-color="#73364b" flood-opacity=".18"/>
    </filter>
  </defs>
  <circle cx="120" cy="120" r="116" fill="url(#bg)"/>
  <g filter="url(#shadow)">
    <path d="M67 217c5-38 24-61 53-61s48 23 53 61H67z" fill="url(#blouse)"/>
    <path d="M98 160h44v28c0 10-9 18-22 18s-22-8-22-18v-28z" fill="url(#skin)"/>
    <path d="M54 111c0-49 28-82 70-82 44 0 68 32 68 83 0 39-15 77-36 91-3-18-9-29-20-35-12-7-26-7-39 0-10 6-17 17-20 35-15-12-23-48-23-92z" fill="url(#hair)"/>
    <path d="M73 105c2-40 22-62 51-62 31 0 48 23 50 63 2 43-20 76-51 76-32 0-52-32-50-77z" fill="url(#skin)"/>
    <path d="M71 113c-5-3-11 1-11 10 0 10 6 18 14 18l3-1-6-27z" fill="#f5bca7"/>
    <path d="M176 113c5-3 11 1 11 10 0 10-6 18-14 18l-3-1 6-27z" fill="#f5bca7"/>
    <path d="M69 111c12-7 21-20 27-39 16 19 45 28 81 26-6-36-26-55-57-55-31 0-50 23-51 68z" fill="url(#hair)"/>
    <path d="M81 91c14-35 43-49 86-30-9-20-25-31-49-31-31 0-53 22-59 57 7 1 14 2 22 4z" fill="#2d2222" opacity=".72"/>
    <ellipse cx="99" cy="120" rx="6" ry="7" fill="#3a2926"/>
    <ellipse cx="145" cy="120" rx="6" ry="7" fill="#3a2926"/>
    <circle cx="101" cy="118" r="2" fill="#fff"/>
    <circle cx="147" cy="118" r="2" fill="#fff"/>
    <path d="M88 105c8-6 18-7 27-2" fill="none" stroke="#4a302d" stroke-width="4" stroke-linecap="round"/>
    <path d="M134 103c9-5 19-4 27 2" fill="none" stroke="#4a302d" stroke-width="4" stroke-linecap="round"/>
    <path d="M121 126c-2 8-4 13-8 18 5 3 11 3 16 0" fill="none" stroke="#db927f" stroke-width="3" stroke-linecap="round" stroke-linejoin="round"/>
    <path d="M103 154c10 10 26 10 36 0" fill="none" stroke="#d46f77" stroke-width="5" stroke-linecap="round"/>
    <path d="M80 215c8-31 20-45 36-45l4 30 4-30c17 0 29 14 36 45H80z" fill="url(#blouse)"/>
    <path d="M119 174l-20 39M122 174l19 39" fill="none" stroke="#8fc7eb" stroke-width="3" stroke-linecap="round"/>
  </g>
  <circle cx="120" cy="120" r="116" fill="none" stroke="#fff" stroke-width="8"/>
</svg>
